{
  "title": "Hitman-Agent-47 2015 HDCAM SHQ-MiC XVID AC3 HQ Hive-CM8",
  "uid": 12345471,
  "size": 1433024015,
  "categoryP": "video",
  "categoryS": "movies",
  "magnet": "?xt=urn:btih:1b43a2c0bd5ca0e957ffd952327ac0683ad8f89a&amp;dn=Hitman-Agent-47+2015+HDCAM+SHQ-MiC+XVID+AC3+HQ+Hive-CM8&amp;tr=udp%3A%2F%2Ftracker.openbittorrent.com%3A80&amp;tr=udp%3A%2F%2Fopen.demonii.com%3A1337&amp;tr=udp%3A%2F%2Ftracker.coppersurfer.tk%3A6969&amp;tr=udp%3A%2F%2Fexodus.desync.com%3A6969",
  "seeders": 104,
  "leechers": 41,
  "uploader": "SS132203",
  "files": 4,
  "time": 1441348916,
  "description": "Hitman-Agent-47 2015 HDCAM SHQ-MiC XVID AC3 HQ Hive-CM8\n &lt;a href=&quot;\nhttp://imgsparrow.co/image/8eI&quot; rel=&quot;nofollow&quot; target=&quot;_NEW&quot;&gt;\nhttp://imgsparrow.co/image/8eI&lt;/a&gt;\n &lt;a href=&quot;\nhttp://imgsparrow.co/image/9b&quot; rel=&quot;nofollow&quot; target=&quot;_NEW&quot;&gt;\nhttp://imgsparrow.co/image/9b&lt;/a&gt;\n\nInfo : - \n\nThank Hive-CM8\n Not Me!\n\nThx Hive\n\nCM8 Doing It Right The First Time\n\nSources:\n\nVideo: 720P HDCAM Latin\nAudio: HQ-MIC Cadance\nthx\n\nEncode:\n\nLatin Video was full and very nice to begin with.\nVideo was bright enough already but needed rotating and fixing perspective and ar, also added sharpness.\n\nCadance was so nice to send me a HQ-Mic, def the best mic i have heard so far, will do just fine\ncould be passed as line, i was tempted to tag ts seeing some of you cant tell the difference anyway\nno laughing or coughing in the background, music is loud and clear, cant be done any better but you are welcome to try\ncleaned and lipsynced to my video\n\nwill do me till retail/web-dl\nenjoy\n\nVideo: 720x336 @bitrate 1800 2pass\nAudio: Super Hiqh Quality (SHQ) MIC Stereo 2.0\nSample: yes included\n\n\n &lt;a href=&quot;\nhttp://www.imdb.com/title/tt2679042/&quot; rel=&quot;nofollow&quot; target=&quot;_NEW&quot;&gt;\nhttp://www.imdb.com/title/tt2679042/&lt;/a&gt;\n\n\nGeneral\nComplete name                  : Hitman-Agent-47.2015.HDCAM.SHQ-MiC.XVID.AC3.HQ.Hive-CM8.avi\nFormat                         : AVI\nFormat/Info                    : Audio Video Interleave\nFile size                      : 1.32 GiB\nDuration                       : 1h 31mn\nOverall bit rate               : 2 067 Kbps\nWriting application            : Nandub v1.0rc2\nWriting library                : Nandub build 1853/release\n\nVideo\nID                             : 0\nFormat                         : MPEG-4 Visual\nFormat profile                 : Advanced Simple@L5\nFormat settings, BVOP          : 2\nFormat settings, QPel          : Yes\nFormat settings, GMC           : No warppoints\nFormat settings, Matrix        : Default (H.263)\nMuxing mode                    : Packed bitstream\nCodec ID                       : XVID\nCodec ID/Hint                  : XviD\nDuration                       : 1h 31mn\nBit rate                       : 1 802 Kbps\nWidth                          : 720 pixels\nHeight                         : 336 pixels\nDisplay aspect ratio           : 2.143\nFrame rate                     : 23.976 fps\nColor space                    : YUV\nChroma subsampling             : 4:2:0\nBit depth                      : 8 bits\nScan type                      : Progressive\nCompression mode               : Lossy\nBits/(Pixel*Frame)             : 0.311\nStream size                    : 1.15 GiB (87%)\nWriting library                : XviD 1.2.1 (UTC 2008-12-04)\n\nAudio\nID                             : 1\nFormat                         : AC-3\nFormat/Info                    : Audio Coding 3\nMode extension                 : CM (complete main)\nFormat settings, Endianness    : Big\nCodec ID                       : 2000\nDuration                       : 1h 31mn\nBit rate mode                  : Constant\nBit rate                       : 256 Kbps\nChannel(s)                     : 2 channels\nChannel positions              : Front: L R\nSampling rate                  : 48.0 KHz\nBit depth                      : 16 bits\nCompression mode               : Lossy\nDelay relative to video        : 50ms\nStream size                    : 167 MiB (12%)\nAlignment                      : Split accross interleaves\nInterleave, duration           : 42 ms (1.00 video frame)\nInterleave, preload duration   : 500 ms\n\nScreens : -\n &lt;a href=&quot;\nhttp://imgsparrow.co/image/8kx&quot; rel=&quot;nofollow&quot; target=&quot;_NEW&quot;&gt;\nhttp://imgsparrow.co/image/8kx&lt;/a&gt; &lt;a href=&quot;\nhttp://imgsparrow.co/image/8kC&quot; rel=&quot;nofollow&quot; target=&quot;_NEW&quot;&gt;\nhttp://imgsparrow.co/image/8kC&lt;/a&gt; &lt;a href=&quot;\nhttp://imgsparrow.co/image/8k1&quot; rel=&quot;nofollow&quot; target=&quot;_NEW&quot;&gt;\nhttp://imgsparrow.co/image/8k1&lt;/a&gt; &lt;a href=&quot;\nhttp://imgsparrow.co/image/8n6&quot; rel=&quot;nofollow&quot; target=&quot;_NEW&quot;&gt;\nhttp://imgsparrow.co/image/8n6&lt;/a&gt; &lt;a href=&quot;\nhttp://imgsparrow.co/image/8n8&quot; rel=&quot;nofollow&quot; target=&quot;_NEW&quot;&gt;\nhttp://imgsparrow.co/image/8n8&lt;/a&gt; &lt;a href=&quot;\nhttp://imgsparrow.co/image/8n9&quot; rel=&quot;nofollow&quot; target=&quot;_NEW&quot;&gt;\nhttp://imgsparrow.co/image/8n9&lt;/a&gt; &lt;a href=&quot;\nhttp://imgsparrow.co/image/8nL&quot; rel=&quot;nofollow&quot; target=&quot;_NEW&quot;&gt;\nhttp://imgsparrow.co/image/8nL&lt;/a&gt;\n &lt;a href=&quot;\nhttp://imgsparrow.co/image/N2&quot; rel=&quot;nofollow&quot; target=&quot;_NEW&quot;&gt;\nhttp://imgsparrow.co/image/N2&lt;/a&gt;",
  "parsed": {
    "xt": "urn:btih:1b43a2c0bd5ca0e957ffd952327ac0683ad8f89a",
    "dn": "Hitman-Agent-47 2015 HDCAM SHQ-MiC XVID AC3 HQ Hive-CM8",
    "tr": [
      "udp://exodus.desync.com:6969",
      "udp://open.demonii.com:1337",
      "udp://tracker.coppersurfer.tk:6969",
      "udp://tracker.openbittorrent.com:80"
    ],
    "infoHash": "1b43a2c0bd5ca0e957ffd952327ac0683ad8f89a",
    "infoHashBuffer": {
      "type": "Buffer",
      "data": [
        27,
        67,
        162,
        192,
        189,
        92,
        160,
        233,
        87,
        255,
        217,
        82,
        50,
        122,
        192,
        104,
        58,
        216,
        248,
        154
      ]
    },
    "name": "Hitman-Agent-47 2015 HDCAM SHQ-MiC XVID AC3 HQ Hive-CM8",
    "announce": [
      "udp://exodus.desync.com:6969",
      "udp://open.demonii.com:1337",
      "udp://tracker.coppersurfer.tk:6969",
      "udp://tracker.openbittorrent.com:80"
    ],
    "urlList": []
  },
  "previous": 145,
  "peers": 3,
  "last_updated": "2016-12-24T18:44:39.739Z"
}